<?xml version="1.0" encoding="UTF-8" ?>
<!DOCTYPE svg PUBLIC "-//W3C//DTD SVG 1.1//EN" "http://www.w3.org/Graphics/SVG/1.1/DTD/svg11.dtd">
<svg width="512pt" height="512pt" viewBox="0 0 512 512" version="1.1" xmlns="http://www.w3.org/2000/svg">
<g id="#08175bff">
<path fill="#08175b" opacity="1.00" d=" M 224.39 23.32 C 241.72 19.16 261.02 21.01 276.20 30.80 C 285.45 36.76 293.13 45.27 297.63 55.36 C 307.34 76.64 310.28 100.14 312.97 123.14 C 313.33 129.18 313.81 135.21 314.56 141.21 C 314.56 155.14 315.42 169.08 314.75 183.00 C 314.69 185.89 314.45 188.83 315.04 191.68 C 319.80 194.64 325.34 196.54 329.16 200.84 C 340.71 212.05 342.32 231.74 332.61 244.60 C 323.39 257.80 304.21 262.76 289.93 255.08 C 275.28 248.18 267.55 229.99 272.63 214.63 C 274.74 207.92 278.97 201.84 284.64 197.66 C 287.59 195.46 291.11 194.22 294.10 192.10 C 294.90 189.49 294.74 186.72 294.82 184.03 C 294.78 169.58 295.15 155.11 294.28 140.68 C 293.99 134.82 293.73 128.95 293.06 123.12 C 291.49 105.49 289.13 87.69 283.05 70.98 C 279.85 62.09 274.64 53.63 266.67 48.30 C 256.47 41.07 243.19 40.03 231.19 42.13 C 217.56 44.58 205.32 53.66 199.07 66.02 C 194.91 74.25 192.25 83.14 190.10 92.08 C 187.56 102.54 185.76 113.18 184.85 123.90 C 184.22 129.87 183.64 135.84 183.04 141.80 C 182.57 156.20 181.60 170.59 181.65 185.00 C 181.79 187.44 181.57 190.05 182.64 192.31 C 185.03 194.03 187.79 195.12 190.24 196.73 C 200.65 203.58 206.64 216.58 204.91 228.94 C 203.31 243.06 191.96 255.30 178.01 258.01 C 164.42 261.09 149.59 254.44 142.37 242.63 C 136.90 234.03 135.68 222.88 139.23 213.32 C 142.21 205.14 148.37 198.02 156.34 194.41 C 158.11 193.53 159.94 192.74 161.56 191.60 C 162.19 185.75 161.44 179.86 161.73 174.00 C 162.17 162.65 162.75 151.30 163.27 139.94 C 163.74 135.21 164.33 130.50 164.81 125.77 C 166.97 107.74 169.80 89.68 175.45 72.39 C 179.02 61.87 183.48 51.33 191.02 43.01 C 199.83 33.29 211.56 26.21 224.39 23.32 M 167.31 211.34 C 161.13 213.07 156.50 219.44 157.30 225.91 C 157.78 233.19 164.72 239.19 171.99 238.73 C 180.07 238.50 186.71 230.04 184.89 222.12 C 183.60 214.34 174.88 208.76 167.31 211.34 M 301.29 211.29 C 295.04 212.95 290.45 219.45 291.23 225.92 C 291.56 233.54 299.28 239.65 306.75 238.62 C 314.13 237.87 319.95 230.41 318.86 223.05 C 318.27 214.81 309.15 208.70 301.29 211.29 Z" />
</g>
<g id="#ed2f2fff">
<path fill="#ed2f2f" opacity="1.00" d=" M 184.85 123.90 C 220.91 122.80 256.99 123.76 293.06 123.12 C 293.73 128.95 293.99 134.82 294.28 140.68 C 259.52 139.72 224.72 140.97 189.96 139.93 C 187.51 139.86 184.87 139.95 183.04 141.80 C 183.64 135.84 184.22 129.87 184.85 123.90 Z" />
<path fill="#ed2f2f" opacity="1.00" d=" M 312.97 123.14 C 326.31 122.82 339.66 122.86 353.01 122.63 C 368.55 122.57 384.68 126.24 397.26 135.74 C 406.55 142.72 412.91 153.15 415.66 164.38 C 422.81 192.68 427.40 221.54 432.59 250.25 C 440.56 297.95 448.06 345.77 453.23 393.87 C 454.32 405.40 455.62 417.26 452.70 428.64 C 449.09 443.50 439.52 456.31 427.68 465.71 C 416.48 474.36 404.90 483.42 390.85 486.76 C 399.12 481.85 406.22 474.38 409.04 465.02 C 411.24 458.49 410.90 451.52 410.50 444.75 C 407.54 358.64 404.47 272.52 401.53 186.41 C 401.24 179.27 401.47 171.89 398.79 165.13 C 395.07 155.07 386.66 146.97 376.56 143.43 C 368.35 140.57 359.54 141.14 351.00 141.11 C 338.85 141.25 326.70 140.83 314.56 141.21 C 313.81 135.21 313.33 129.18 312.97 123.14 Z" />
<path fill="#ed2f2f" opacity="1.00" d=" M 150.18 127.11 C 155.03 126.52 159.89 125.44 164.81 125.77 C 164.33 130.50 163.74 135.21 163.27 139.94 C 142.50 139.81 121.70 139.18 100.94 140.05 C 101.41 138.79 102.73 138.33 103.85 137.85 C 118.78 132.38 134.45 129.21 150.18 127.11 Z" />
</g>
<g id="#ff7f29ff">
<path fill="#ff7f29" opacity="1.00" d=" M 81.34 151.36 C 86.49 145.65 93.54 141.92 100.94 140.05 C 121.70 139.18 142.50 139.81 163.27 139.94 C 162.75 151.30 162.17 162.65 161.73 174.00 C 161.44 179.86 162.19 185.75 161.56 191.60 C 159.94 192.74 158.11 193.53 156.34 194.41 C 148.37 198.02 142.21 205.14 139.23 213.32 C 135.68 222.88 136.90 234.03 142.37 242.63 C 149.59 254.44 164.42 261.09 178.01 258.01 C 191.96 255.30 203.31 243.06 204.91 228.94 C 206.64 216.58 200.65 203.58 190.24 196.73 C 187.79 195.12 185.03 194.03 182.64 192.31 C 181.57 190.05 181.79 187.44 181.65 185.00 C 181.60 170.59 182.57 156.20 183.04 141.80 C 184.87 139.95 187.51 139.86 189.96 139.93 C 224.72 140.97 259.52 139.72 294.28 140.68 C 295.15 155.11 294.78 169.58 294.82 184.03 C 294.74 186.72 294.90 189.49 294.10 192.10 C 291.11 194.22 287.59 195.46 284.64 197.66 C 278.97 201.84 274.74 207.92 272.63 214.63 C 267.55 229.99 275.28 248.18 289.93 255.08 C 304.21 262.76 323.39 257.80 332.61 244.60 C 342.32 231.74 340.71 212.05 329.16 200.84 C 325.34 196.54 319.80 194.64 315.04 191.68 C 314.45 188.83 314.69 185.89 314.75 183.00 C 315.42 169.08 314.56 155.14 314.56 141.21 C 326.70 140.83 338.85 141.25 351.00 141.11 C 359.54 141.14 368.35 140.57 376.56 143.43 C 386.66 146.97 395.07 155.07 398.79 165.13 C 401.47 171.89 401.24 179.27 401.53 186.41 C 404.47 272.52 407.54 358.64 410.50 444.75 C 410.90 451.52 411.24 458.49 409.04 465.02 C 406.22 474.38 399.12 481.85 390.85 486.76 C 385.32 489.42 379.17 490.79 373.04 490.69 C 280.00 490.64 186.97 490.69 93.94 490.67 C 79.20 490.62 65.09 480.88 59.97 467.04 C 56.50 458.78 57.55 449.64 58.06 440.95 C 62.52 353.28 66.94 265.60 71.35 177.93 C 71.18 168.23 74.67 158.46 81.34 151.36 Z" />
<path fill="#ff7f29" opacity="1.00" d=" M 167.31 211.34 C 174.88 208.76 183.60 214.34 184.89 222.12 C 186.71 230.04 180.07 238.50 171.99 238.73 C 164.72 239.19 157.78 233.19 157.30 225.91 C 156.50 219.44 161.13 213.07 167.31 211.34 Z" />
<path fill="#ff7f29" opacity="1.00" d=" M 301.29 211.29 C 309.15 208.70 318.27 214.81 318.86 223.05 C 319.95 230.41 314.13 237.87 306.75 238.62 C 299.28 239.65 291.56 233.54 291.23 225.92 C 290.45 219.45 295.04 212.95 301.29 211.29 Z" />
</g>
</svg>
